/vscmnt/brussel_pixiu_data/_data_brussel/112/vsc11236/PredSimResults/SUBJ11_Dhondt2024_3seg/weighted-LRposFixed/worker_03.mot
version=1
nRows=4
nColumns=124
inDegrees=yes
endheader
                time	         pelvis_tilt	         pelvis_list	     pelvis_rotation	           pelvis_tx	           pelvis_ty	           pelvis_tz	       hip_flexion_r	     hip_adduction_r	      hip_rotation_r	        knee_angle_r	       ankle_angle_r	    subtalar_angle_r	         mtp_angle_r	       hip_flexion_l	     hip_adduction_l	      hip_rotation_l	        knee_angle_l	       ankle_angle_l	    subtalar_angle_l	         mtp_angle_l	    lumbar_extension	      lumbar_bending	     lumbar_rotation	          arm_flex_r	           arm_add_r	           arm_rot_r	        elbow_flex_r	          arm_flex_l	           arm_add_l	           arm_rot_l	        elbow_flex_l	glut_med1_r/activation	glut_med2_r/activation	glut_med3_r/activation	glut_min1_r/activation	glut_min2_r/activation	glut_min3_r/activation	semimem_r/activation	semiten_r/activation	bifemlh_r/activation	bifemsh_r/activation	    sar_r/activation	add_long_r/activation	add_brev_r/activation	add_mag1_r/activation	add_mag2_r/activation	add_mag3_r/activation	    tfl_r/activation	   pect_r/activation	   grac_r/activation	glut_max1_r/activation	glut_max2_r/activation	glut_max3_r/activation	iliacus_r/activation	  psoas_r/activation	quad_fem_r/activation	    gem_r/activation	   peri_r/activation	rect_fem_r/activation	vas_med_r/activation	vas_int_r/activation	vas_lat_r/activation	med_gas_r/activation	lat_gas_r/activation	 soleus_r/activation	tib_post_r/activation	flex_dig_r/activation	flex_hal_r/activation	tib_ant_r/activation	per_brev_r/activation	per_long_r/activation	per_tert_r/activation	ext_dig_r/activation	ext_hal_r/activation	glut_med1_l/activation	glut_med2_l/activation	glut_med3_l/activation	glut_min1_l/activation	glut_min2_l/activation	glut_min3_l/activation	semimem_l/activation	semiten_l/activation	bifemlh_l/activation	bifemsh_l/activation	    sar_l/activation	add_long_l/activation	add_brev_l/activation	add_mag1_l/activation	add_mag2_l/activation	add_mag3_l/activation	    tfl_l/activation	   pect_l/activation	   grac_l/activation	glut_max1_l/activation	glut_max2_l/activation	glut_max3_l/activation	iliacus_l/activation	  psoas_l/activation	quad_fem_l/activation	    gem_l/activation	   peri_l/activation	rect_fem_l/activation	vas_med_l/activation	vas_int_l/activation	vas_lat_l/activation	med_gas_l/activation	lat_gas_l/activation	 soleus_l/activation	tib_post_l/activation	flex_dig_l/activation	flex_hal_l/activation	tib_ant_l/activation	per_brev_l/activation	per_long_l/activation	per_tert_l/activation	ext_dig_l/activation	ext_hal_l/activation	 ercspn_r/activation	 ercspn_l/activation	 intobl_r/activation	 intobl_l/activation	 extobl_r/activation	 extobl_l/activation	
          0.62905565	         -2.92766387	          0.82634676	         -2.51555818	          0.66050844	          0.91918066	          0.00298056	        -15.75482593	          1.17352586	          9.16757668	         -7.09078190	         10.81937972	          4.55118498	         14.11298556	         29.09182998	          2.24867998	          0.90288164	        -11.50107468	          4.77620849	         -3.94509843	          0.16302058	         -5.34779203	          0.77700129	          1.55402835	          8.59747005	        -13.47306296	         19.38226649	         51.02425238	        -12.62622053	        -13.44990639	         16.70066341	         25.55807683	          0.22382730	          0.13618081	          0.07879122	          0.29110660	          0.27659556	          0.19693170	          0.01077563	          0.01000011	          0.01000010	          0.05691189	          0.10900959	          0.01000001	          0.01000002	          0.01000004	          0.01000020	          0.01000017	          0.35596229	          0.01000009	          0.01000012	          0.02085006	          0.01243064	          0.01000042	          0.27745769	          0.42197391	          0.01000004	          0.01202755	          0.08208227	          0.21069873	          0.01000012	          0.01000012	          0.01000011	          0.41572504	          0.45568676	          0.35824206	          0.27423919	          0.30340418	          0.35297306	          0.01379555	          0.01000006	          0.06300513	          0.01386252	          0.01463335	          0.01464063	          0.01000056	          0.01000061	          0.01000105	          0.01000025	          0.01000024	          0.01000039	          0.08505283	          0.03544536	          0.03134669	          0.01717753	          0.01573769	          0.07702740	          0.11249926	          0.12167912	          0.10864250	          0.05835985	          0.01000014	          0.01337300	          0.04547504	          0.01209701	          0.01217408	          0.05769539	          0.02590361	          0.02393040	          0.04711332	          0.01000008	          0.01000003	          0.01000002	          0.01768886	          0.01791716	          0.01514751	          0.01000000	          0.01000001	          0.00999999	          0.01209684	          0.01209684	          0.01209681	          0.26999958	          0.15075563	          0.10580647	          0.11367337	          0.31909881	          0.03827381	          0.00999999	          0.01463336	          0.01000000	          0.04007626	          0.01000000	          0.09185637	
          0.64163677	         -2.93020002	          1.03850453	         -2.73818247	          0.67617425	          0.91865960	          0.00268031	        -15.93218768	          0.86489404	          8.90894992	         -8.46145473	         10.25587132	          5.09432911	         15.39495497	         28.43134568	          2.66615171	          1.03385629	        -10.81751037	          3.96802429	         -4.22155733	          0.18817103	         -5.23151407	          0.40917932	          1.64862524	          8.34148799	        -13.49045692	         19.37202306	         52.42691156	        -13.41987680	        -13.45039925	         16.51504719	         25.02101366	          0.19113340	          0.11257541	          0.06513366	          0.24064660	          0.22865088	          0.16279584	          0.01000021	          0.01000002	          0.01000002	          0.04704687	          0.09011410	          0.01000022	          0.01000004	          0.01000005	          0.01000018	          0.01000007	          0.29426057	          0.01047055	          0.01000073	          0.01723610	          0.01027620	          0.01000018	          0.25389689	          0.36044646	          0.01268277	          0.01029360	          0.06785425	          0.18211944	          0.01000005	          0.01000005	          0.01000004	          0.38085669	          0.41866196	          0.33671537	          0.26263187	          0.30139953	          0.34417163	          0.01140425	          0.01000008	          0.05957365	          0.01145962	          0.01209683	          0.01210284	          0.01209683	          0.01000024	          0.01000002	          0.01209684	          0.01209681	          0.01000027	          0.07030991	          0.02930132	          0.02591310	          0.01420001	          0.01300976	          0.07963016	          0.20347062	          0.11417146	          0.13271530	          0.04824389	          0.01000008	          0.02275662	          0.03759251	          0.01000017	          0.01006385	          0.05714278	          0.02141353	          0.01978235	          0.06272631	          0.15296901	          0.05843246	          0.01770177	          0.09427285	          0.09510851	          0.08008893	          0.01000283	          0.01000004	          0.01209684	          0.01000000	          0.01000002	          0.01000002	          0.34321571	          0.16015763	          0.09675407	          0.20303575	          0.35845409	          0.03163949	          0.01000000	          0.01209684	          0.01122652	          0.03312949	          0.01000001	          0.07593411	
          0.65421788	         -2.92922027	          1.25794156	         -2.95078036	          0.69218647	          0.91823569	          0.00236913	        -16.01660960	          0.54887826	          8.62289200	        -10.00195688	          9.53178346	          5.65232060	         16.75885265	         27.72699347	          3.06443888	          1.19001542	        -10.72903254	          2.84558687	         -4.47261664	          0.21798814	         -5.09538943	          0.02824950	          1.73548258	          7.98434794	        -13.51140185	         19.35126056	         53.78690162	        -14.18026690	        -13.45809596	         16.49225631	         24.44543563	          0.15800260	          0.09306175	          0.05384348	          0.19893325	          0.18901686	          0.13457703	          0.01299587	          0.01209613	          0.01209683	          0.03889183	          0.07449386	          0.01209700	          0.01209684	          0.01209687	          0.01209688	          0.01209681	          0.24325387	          0.01201949	          0.01209690	          0.01424855	          0.01209684	          0.01209687	          0.20988675	          0.29796721	          0.01209686	          0.01209697	          0.05609249	          0.23971719	          0.01209691	          0.01209692	          0.01209692	          0.34334314	          0.37792652	          0.31314220	          0.24597161	          0.28690459	          0.33523198	          0.00999999	          0.01000002	          0.06901555	          0.01000000	          0.01000000	          0.01000496	          0.00999999	          0.01000000	          0.03768390	          0.01000000	          0.01000001	          0.01000001	          0.05812249	          0.02422231	          0.02142137	          0.01770203	          0.01463342	          0.06582723	          0.17184036	          0.17784472	          0.10971075	          0.03988137	          0.01000005	          0.01881232	          0.08952770	          0.01000008	          0.01209681	          0.04723774	          0.01770174	          0.01635333	          0.15595064	          0.12645358	          0.04830386	          0.01463337	          0.07793173	          0.07862253	          0.06620643	          0.01463336	          0.01463337	          0.00999999	          0.01528468	          0.01463344	          0.01463349	          0.28463730	          0.15833906	          0.11488893	          0.16784182	          0.33337703	          0.07992512	          0.01000033	          0.00999999	          0.01471947	          0.02738687	          0.01376473	          0.06277179	
          0.66679899	         -2.92627998	          1.49472572	         -3.15014083	          0.70842159	          0.91795737	          0.00207363	        -15.99909125	          0.21748414	          8.29929319	        -11.69567438	          8.60670297	          6.20665488	         18.19718550	         26.99869614	          3.41973555	          1.39154609	        -11.01423228	          1.44104541	         -4.72254789	          0.20626345	         -4.94901571	         -0.37888666	          1.81252784	          7.54515976	        -13.52662814	         19.32104745	         55.08572670	        -14.87818921	        -13.48012874	         16.66153495	         23.81694098	          0.20806313	          0.07693055	          0.04451032	          0.28403751	          0.15625296	          0.11124964	          0.01074997	          0.01000002	          0.01000002	          0.03215037	          0.06158123	          0.01000015	          0.01000002	          0.01000005	          0.01000014	          0.01000007	          0.20491657	          0.01000032	          0.01000012	          0.01177883	          0.01000017	          0.01000012	          0.18149816	          0.29845606	          0.01000002	          0.01000014	          0.04636950	          0.19816494	          0.01000008	          0.01000009	          0.01000007	          0.28382851	          0.32036433	          0.26510046	          0.22107818	          0.23717307	          0.27876823	          0.01000000	          0.01000024	          0.08848577	          0.01000002	          0.01000000	          0.01000002	          0.20495743	          0.20339428	          0.25511735	          0.10936938	          0.01000052	          0.11774180	          0.04804765	          0.03140489	          0.04373337	          0.01463360	          0.01209692	          0.05441684	          0.14205380	          0.14701737	          0.09069368	          0.07601807	          0.01000012	          0.01555154	          0.07400912	          0.01000008	          0.01000006	          0.05052587	          0.01463335	          0.01351867	          0.12891839	          0.10453430	          0.08127663	          0.01209685	          0.07213201	          0.08094310	          0.05483692	          0.01209684	          0.01209685	          0.01209684	          0.01263525	          0.01209691	          0.01209695	          0.43185875	          0.19015561	          0.09497429	          0.41306999	          0.42897760	          0.14484018	          0.01456899	          0.02659750	          0.01216802	          0.02263968	          0.01137878	          0.05189102	
